<mxfile host="app.diagrams.net" modified="2022-11-18T06:25:09.078Z" agent="5.0 (Macintosh; Intel Mac OS X 10_15_7) AppleWebKit/537.36 (KHTML, like Gecko) Chrome/107.0.0.0 Safari/537.36" etag="utODFPeCF8kfzOvkWpY0" version="20.5.3" type="github" pages="2">
  <diagram id="tsX5UEzlDEfVb8jVVZuf" name="第 1 页">
    <mxGraphModel dx="1298" dy="724" grid="1" gridSize="10" guides="1" tooltips="1" connect="1" arrows="1" fold="1" page="1" pageScale="1" pageWidth="827" pageHeight="1169" math="0" shadow="0">
      <root>
        <mxCell id="0" />
        <mxCell id="1" parent="0" />
        <mxCell id="lM4aZQYWsKYe3F-Cy5GH-1" value="DOCC" style="shape=umlActor;verticalLabelPosition=bottom;verticalAlign=top;html=1;outlineConnect=0;" vertex="1" parent="1">
          <mxGeometry x="450" y="1060" width="30" height="60" as="geometry" />
        </mxCell>
        <mxCell id="lM4aZQYWsKYe3F-Cy5GH-2" value="Guest" style="shape=umlActor;verticalLabelPosition=bottom;verticalAlign=top;html=1;outlineConnect=0;" vertex="1" parent="1">
          <mxGeometry x="30" y="300" width="30" height="60" as="geometry" />
        </mxCell>
      </root>
    </mxGraphModel>
  </diagram>
  <diagram id="1xNq5qQMwgDaYfjBOsOY" name="第 2 页">
    <mxGraphModel dx="1298" dy="724" grid="1" gridSize="10" guides="1" tooltips="1" connect="1" arrows="1" fold="1" page="1" pageScale="1" pageWidth="827" pageHeight="1169" math="0" shadow="0">
      <root>
        <mxCell id="0" />
        <mxCell id="1" parent="0" />
        <mxCell id="ru88r5isP1IJ8STexp-r-3" value="" style="edgeStyle=orthogonalEdgeStyle;rounded=0;orthogonalLoop=1;jettySize=auto;html=1;" edge="1" parent="1" source="ru88r5isP1IJ8STexp-r-1" target="ru88r5isP1IJ8STexp-r-2">
          <mxGeometry relative="1" as="geometry" />
        </mxCell>
        <mxCell id="ru88r5isP1IJ8STexp-r-4" value="login" style="edgeLabel;html=1;align=center;verticalAlign=middle;resizable=0;points=[];" vertex="1" connectable="0" parent="ru88r5isP1IJ8STexp-r-3">
          <mxGeometry x="0.125" relative="1" as="geometry">
            <mxPoint as="offset" />
          </mxGeometry>
        </mxCell>
        <mxCell id="ru88r5isP1IJ8STexp-r-1" value="DOCC" style="shape=umlActor;verticalLabelPosition=bottom;verticalAlign=top;html=1;outlineConnect=0;" vertex="1" parent="1">
          <mxGeometry x="370" y="10" width="30" height="60" as="geometry" />
        </mxCell>
        <mxCell id="ru88r5isP1IJ8STexp-r-6" value="" style="edgeStyle=orthogonalEdgeStyle;rounded=0;orthogonalLoop=1;jettySize=auto;html=1;" edge="1" parent="1" source="ru88r5isP1IJ8STexp-r-2" target="ru88r5isP1IJ8STexp-r-5">
          <mxGeometry relative="1" as="geometry" />
        </mxCell>
        <mxCell id="ru88r5isP1IJ8STexp-r-2" value="admin-ui" style="whiteSpace=wrap;html=1;verticalAlign=top;" vertex="1" parent="1">
          <mxGeometry x="325" y="150" width="120" height="60" as="geometry" />
        </mxCell>
        <mxCell id="ru88r5isP1IJ8STexp-r-8" style="edgeStyle=orthogonalEdgeStyle;rounded=0;orthogonalLoop=1;jettySize=auto;html=1;exitX=0.5;exitY=1;exitDx=0;exitDy=0;" edge="1" parent="1" source="ru88r5isP1IJ8STexp-r-5" target="ru88r5isP1IJ8STexp-r-7">
          <mxGeometry relative="1" as="geometry" />
        </mxCell>
        <mxCell id="ru88r5isP1IJ8STexp-r-9" value="save config" style="edgeLabel;html=1;align=center;verticalAlign=middle;resizable=0;points=[];" vertex="1" connectable="0" parent="ru88r5isP1IJ8STexp-r-8">
          <mxGeometry x="0.28" relative="1" as="geometry">
            <mxPoint as="offset" />
          </mxGeometry>
        </mxCell>
        <mxCell id="ru88r5isP1IJ8STexp-r-5" value="admin-service&lt;br&gt;dpa setting" style="whiteSpace=wrap;html=1;verticalAlign=top;" vertex="1" parent="1">
          <mxGeometry x="325" y="290" width="120" height="60" as="geometry" />
        </mxCell>
        <mxCell id="ru88r5isP1IJ8STexp-r-13" style="edgeStyle=orthogonalEdgeStyle;rounded=0;orthogonalLoop=1;jettySize=auto;html=1;exitX=0;exitY=0.5;exitDx=0;exitDy=0;exitPerimeter=0;entryX=1;entryY=0.5;entryDx=0;entryDy=0;dashed=1;" edge="1" parent="1" source="ru88r5isP1IJ8STexp-r-7">
          <mxGeometry relative="1" as="geometry">
            <mxPoint x="210" y="460" as="targetPoint" />
          </mxGeometry>
        </mxCell>
        <mxCell id="ru88r5isP1IJ8STexp-r-16" value="read config" style="edgeLabel;html=1;align=center;verticalAlign=middle;resizable=0;points=[];" vertex="1" connectable="0" parent="ru88r5isP1IJ8STexp-r-13">
          <mxGeometry x="0.1724" y="1" relative="1" as="geometry">
            <mxPoint as="offset" />
          </mxGeometry>
        </mxCell>
        <mxCell id="ru88r5isP1IJ8STexp-r-21" style="edgeStyle=orthogonalEdgeStyle;rounded=0;orthogonalLoop=1;jettySize=auto;html=1;exitX=1;exitY=0.5;exitDx=0;exitDy=0;exitPerimeter=0;entryX=0.5;entryY=0;entryDx=0;entryDy=0;dashed=1;" edge="1" parent="1" source="ru88r5isP1IJ8STexp-r-7" target="ru88r5isP1IJ8STexp-r-18">
          <mxGeometry relative="1" as="geometry">
            <Array as="points">
              <mxPoint x="620" y="460" />
            </Array>
          </mxGeometry>
        </mxCell>
        <mxCell id="ru88r5isP1IJ8STexp-r-22" value="read inventory&amp;nbsp;" style="edgeLabel;html=1;align=center;verticalAlign=middle;resizable=0;points=[];" vertex="1" connectable="0" parent="ru88r5isP1IJ8STexp-r-21">
          <mxGeometry x="-0.1304" relative="1" as="geometry">
            <mxPoint as="offset" />
          </mxGeometry>
        </mxCell>
        <mxCell id="ru88r5isP1IJ8STexp-r-35" style="edgeStyle=orthogonalEdgeStyle;rounded=0;orthogonalLoop=1;jettySize=auto;html=1;exitX=1;exitY=1;exitDx=0;exitDy=-15;exitPerimeter=0;entryX=0.25;entryY=0;entryDx=0;entryDy=0;dashed=1;" edge="1" parent="1" source="ru88r5isP1IJ8STexp-r-7" target="ru88r5isP1IJ8STexp-r-18">
          <mxGeometry relative="1" as="geometry" />
        </mxCell>
        <mxCell id="ru88r5isP1IJ8STexp-r-36" value="read dpa definition" style="edgeLabel;html=1;align=center;verticalAlign=middle;resizable=0;points=[];" vertex="1" connectable="0" parent="ru88r5isP1IJ8STexp-r-35">
          <mxGeometry x="-0.151" y="-1" relative="1" as="geometry">
            <mxPoint as="offset" />
          </mxGeometry>
        </mxCell>
        <mxCell id="ru88r5isP1IJ8STexp-r-7" value="fastpass" style="shape=cylinder3;whiteSpace=wrap;html=1;boundedLbl=1;backgroundOutline=1;size=15;" vertex="1" parent="1">
          <mxGeometry x="355" y="420" width="60" height="80" as="geometry" />
        </mxCell>
        <mxCell id="ru88r5isP1IJ8STexp-r-15" style="edgeStyle=orthogonalEdgeStyle;rounded=0;orthogonalLoop=1;jettySize=auto;html=1;exitX=0.75;exitY=1;exitDx=0;exitDy=0;" edge="1" parent="1" source="ru88r5isP1IJ8STexp-r-14">
          <mxGeometry relative="1" as="geometry">
            <mxPoint x="380" y="500" as="targetPoint" />
            <Array as="points">
              <mxPoint x="180" y="550" />
              <mxPoint x="380" y="550" />
              <mxPoint x="380" y="500" />
            </Array>
          </mxGeometry>
        </mxCell>
        <mxCell id="ru88r5isP1IJ8STexp-r-17" value="save inventory" style="edgeLabel;html=1;align=center;verticalAlign=middle;resizable=0;points=[];" vertex="1" connectable="0" parent="ru88r5isP1IJ8STexp-r-15">
          <mxGeometry x="-0.1404" y="1" relative="1" as="geometry">
            <mxPoint y="1" as="offset" />
          </mxGeometry>
        </mxCell>
        <mxCell id="ru88r5isP1IJ8STexp-r-19" style="edgeStyle=orthogonalEdgeStyle;rounded=0;orthogonalLoop=1;jettySize=auto;html=1;exitX=0.25;exitY=1;exitDx=0;exitDy=0;entryX=0;entryY=0.5;entryDx=0;entryDy=0;" edge="1" parent="1" source="ru88r5isP1IJ8STexp-r-14" target="ru88r5isP1IJ8STexp-r-18">
          <mxGeometry relative="1" as="geometry" />
        </mxCell>
        <mxCell id="ru88r5isP1IJ8STexp-r-14" value="batch-job&lt;br&gt;calc inventory" style="shape=process;whiteSpace=wrap;html=1;backgroundOutline=1;" vertex="1" parent="1">
          <mxGeometry x="90" y="430" width="120" height="60" as="geometry" />
        </mxCell>
        <mxCell id="ru88r5isP1IJ8STexp-r-24" style="edgeStyle=orthogonalEdgeStyle;rounded=0;orthogonalLoop=1;jettySize=auto;html=1;exitX=0.5;exitY=1;exitDx=0;exitDy=0;entryX=1;entryY=0.5;entryDx=0;entryDy=0;" edge="1" parent="1" source="ru88r5isP1IJ8STexp-r-18" target="ru88r5isP1IJ8STexp-r-23">
          <mxGeometry relative="1" as="geometry" />
        </mxCell>
        <mxCell id="ru88r5isP1IJ8STexp-r-25" value="push inventory" style="edgeLabel;html=1;align=center;verticalAlign=middle;resizable=0;points=[];" vertex="1" connectable="0" parent="ru88r5isP1IJ8STexp-r-24">
          <mxGeometry x="0.1517" y="2" relative="1" as="geometry">
            <mxPoint as="offset" />
          </mxGeometry>
        </mxCell>
        <mxCell id="ru88r5isP1IJ8STexp-r-27" value="push dpa definition" style="edgeStyle=orthogonalEdgeStyle;rounded=0;orthogonalLoop=1;jettySize=auto;html=1;exitX=0.25;exitY=1;exitDx=0;exitDy=0;entryX=1;entryY=0.5;entryDx=0;entryDy=0;" edge="1" parent="1" source="ru88r5isP1IJ8STexp-r-18" target="ru88r5isP1IJ8STexp-r-26">
          <mxGeometry relative="1" as="geometry" />
        </mxCell>
        <mxCell id="ru88r5isP1IJ8STexp-r-18" value="inventory &amp;amp; product updater" style="shape=process;whiteSpace=wrap;html=1;backgroundOutline=1;" vertex="1" parent="1">
          <mxGeometry x="560" y="555" width="120" height="60" as="geometry" />
        </mxCell>
        <mxCell id="ru88r5isP1IJ8STexp-r-30" style="edgeStyle=orthogonalEdgeStyle;rounded=0;orthogonalLoop=1;jettySize=auto;html=1;exitX=0.5;exitY=1;exitDx=0;exitDy=0;" edge="1" parent="1" source="ru88r5isP1IJ8STexp-r-23" target="ru88r5isP1IJ8STexp-r-29">
          <mxGeometry relative="1" as="geometry" />
        </mxCell>
        <mxCell id="ru88r5isP1IJ8STexp-r-34" value="push" style="edgeLabel;html=1;align=center;verticalAlign=middle;resizable=0;points=[];" vertex="1" connectable="0" parent="ru88r5isP1IJ8STexp-r-30">
          <mxGeometry x="-0.0571" relative="1" as="geometry">
            <mxPoint as="offset" />
          </mxGeometry>
        </mxCell>
        <mxCell id="ru88r5isP1IJ8STexp-r-23" value="unified inventory" style="rounded=0;whiteSpace=wrap;html=1;" vertex="1" parent="1">
          <mxGeometry x="325" y="700" width="120" height="60" as="geometry" />
        </mxCell>
        <mxCell id="ru88r5isP1IJ8STexp-r-33" value="push" style="edgeStyle=orthogonalEdgeStyle;rounded=0;orthogonalLoop=1;jettySize=auto;html=1;exitX=0;exitY=0.5;exitDx=0;exitDy=0;" edge="1" parent="1" source="ru88r5isP1IJ8STexp-r-26" target="ru88r5isP1IJ8STexp-r-32">
          <mxGeometry relative="1" as="geometry" />
        </mxCell>
        <mxCell id="ru88r5isP1IJ8STexp-r-26" value="unified product hub" style="rounded=0;whiteSpace=wrap;html=1;" vertex="1" parent="1">
          <mxGeometry x="325" y="630" width="120" height="60" as="geometry" />
        </mxCell>
        <mxCell id="ru88r5isP1IJ8STexp-r-29" value="inventory" style="sketch=0;aspect=fixed;html=1;points=[];align=center;image;fontSize=12;image=img/lib/mscae/Cache_Redis_Product.svg;" vertex="1" parent="1">
          <mxGeometry x="360" y="830" width="50" height="42" as="geometry" />
        </mxCell>
        <mxCell id="ru88r5isP1IJ8STexp-r-32" value="pibi" style="sketch=0;aspect=fixed;html=1;points=[];align=center;image;fontSize=12;image=img/lib/mscae/Cache_Redis_Product.svg;" vertex="1" parent="1">
          <mxGeometry x="220" y="830" width="50" height="42" as="geometry" />
        </mxCell>
      </root>
    </mxGraphModel>
  </diagram>
</mxfile>
